<svg width="228" height="32" viewBox="0 0 228 32" fill="none" xmlns="http://www.w3.org/2000/svg">
<g id="Sendbird AI chatbot Lockup">
<g id="Group 1">
<path id="Combined-Shape" d="M33.3071 11.3235C35.6773 11.3235 37.8156 12.5452 38.1207 14.952V15.0239H34.9058C34.8705 14.4666 34.259 13.9635 33.2353 13.9635C32.5166 13.9635 31.9783 14.2144 31.9783 14.7364C31.9783 16.4788 38.2292 14.6469 38.2468 19.3167C38.2468 21.3466 36.3254 22.9086 33.8102 22.9086C30.9546 22.9086 28.9424 21.4713 28.6739 18.9927V18.9208H31.7275C31.7993 19.6571 32.5899 20.1601 33.6488 20.1601C34.6007 20.1601 35.139 19.8374 35.139 19.3154C35.139 17.4835 28.8882 19.1174 28.8882 14.9683C28.8882 12.8842 30.5763 11.3222 33.3071 11.3222V11.3235ZM75.6231 7.31809V22.674H72.4258V21.093C71.6529 22.2605 70.4502 22.9072 68.8882 22.9072C66.0326 22.9072 63.7329 20.2849 63.7329 17.1066C63.7329 13.9283 66.0136 11.3411 68.8882 11.3411C70.4149 11.3411 71.6176 11.9879 72.3905 13.1011L72.4258 13.1554V7.31809H75.6231ZM45.1621 11.3235C48.179 11.3235 50.64 13.6937 50.64 16.7472C50.64 17.07 50.6224 17.394 50.5858 17.7167L50.5682 17.8781H42.3241C42.5397 19.3154 43.6529 20.2483 45.1444 20.2483C46.3661 20.2483 47.1376 19.7276 47.3356 18.9737L47.3532 18.9384H50.4787C50.1193 21.3086 48.0543 22.8544 45.3234 22.8896H45.0902C41.8929 22.8544 39.3614 20.232 39.3966 17.0523C39.3966 13.8008 41.9295 11.3235 45.1621 11.3235ZM80.5261 7.31809V13.1011C81.299 11.9513 82.4841 11.3235 84.0285 11.3235C86.9207 11.3235 89.2014 13.9283 89.2014 17.1066C89.2014 20.2849 86.9207 22.8896 84.0461 22.8896C82.556 22.8896 81.3519 22.2605 80.5804 21.1472L80.5451 21.093V22.655H77.3478V7.31809H80.5275H80.5261ZM114.544 7.31809V22.6564H111.364V21.0754C110.591 22.2428 109.388 22.8896 107.826 22.8896C104.934 22.8896 102.654 20.2672 102.654 17.0889C102.654 13.9106 104.934 11.3235 107.809 11.3235C109.336 11.3235 110.538 11.9703 111.311 13.0835L111.346 13.1378V7.31809H114.544ZM57.9865 11.3235C60.8421 11.3235 62.5668 13.2449 62.5478 16.3703V22.6564H59.3505V16.7649C59.3505 15.31 58.4882 14.3581 57.1593 14.3581C55.8305 14.3581 54.9858 15.2747 54.9682 16.693V22.6564H51.7709V11.5391H54.9682V12.9764C55.6692 11.935 56.7105 11.3235 57.9851 11.3235H57.9865ZM101.29 11.3059H101.361C101.684 11.3235 101.991 11.3601 102.296 11.432L102.422 11.4496V14.3594C102.045 14.2523 101.668 14.1981 101.272 14.1981C99.7451 14.1981 98.5234 15.0957 98.4882 17.1079V22.6578H95.2909V11.5391H98.4882V12.7961C99.1173 11.8794 100.122 11.3235 101.218 11.3059H101.29ZM93.5485 11.5391V22.6388H90.3512V11.5391H93.5485ZM66.9492 17.0713C66.9315 18.5615 68.099 19.8008 69.5892 19.855H69.7329C71.2231 19.8198 72.4271 18.5981 72.4271 17.1066C72.4271 15.615 71.2244 14.3947 69.7329 14.3771C68.2238 14.3418 66.9668 15.5445 66.9492 17.0713ZM83.3478 14.3052H83.2936C81.7668 14.3228 80.5451 15.5798 80.5641 17.1066C80.5641 18.651 81.7858 19.8361 83.3654 19.8361C84.8922 19.8008 86.1139 18.5425 86.0949 17.0347C86.0773 15.5445 84.8732 14.3405 83.4007 14.3052H83.3465H83.3478ZM105.852 17.0713C105.835 18.5615 107.002 19.8008 108.492 19.855H108.636C110.126 19.8198 111.33 18.5981 111.33 17.1066C111.33 15.615 110.127 14.3947 108.636 14.3771C107.146 14.3418 105.887 15.5445 105.852 17.0713ZM45.0197 13.9283C43.817 13.9283 42.8827 14.5208 42.4868 15.7778L42.4692 15.8496H47.3004C47.2109 14.6998 46.2048 13.9283 45.0197 13.9283ZM91.9309 6.77979C92.9912 6.77979 93.8712 7.64216 93.8712 8.70114C93.8712 9.76012 93.0265 10.6415 91.9499 10.6415C90.8732 10.6415 90.0095 9.79673 90.0095 8.72012C90.0095 7.64351 90.8543 6.77979 91.9309 6.77979Z" fill="#6210CC"/>
<path id="Vector" d="M16.0109 6.77979C21.0943 6.77979 25.2244 10.9466 25.2244 16.011C25.2244 21.0754 21.0753 25.2245 15.9933 25.2245C10.9112 25.2245 6.77969 21.0767 6.77969 15.9933H11.3058C8.7919 15.9391 6.77969 13.8916 6.77969 11.3778V6.77979H16.0109Z" fill="#6210CC"/>
<path id="Vector_2" d="M137.681 7.31787H135.485V22.6847H137.681V7.31787Z" fill="#6210CC"/>
<path id="Vector_3" d="M125.839 7.31787L119.52 22.6847H121.831L123.212 19.2826H130.323L131.704 22.6847H134.083L127.718 7.31787H125.839ZM124.05 17.2623L126.791 10.5233L129.508 17.2623H124.05Z" fill="#6210CC"/>
<path id="Vector_4" d="M148.65 13.4009C150.099 13.4009 151.39 14.262 151.707 15.4389H153.836C153.474 13.1284 151.231 11.4077 148.651 11.4077C145.436 11.4077 142.944 13.9216 142.944 17.1826C142.944 20.4436 145.435 22.9114 148.651 22.9114C151.256 22.9114 153.52 21.2125 153.836 18.7894H151.73C151.436 20.0572 150.1 20.9182 148.651 20.9182C146.568 20.9182 144.982 19.2884 144.982 17.1813C144.982 15.0742 146.567 13.3996 148.651 13.3996L148.65 13.4009Z" fill="#6210CC"/>
<path id="Vector_5" d="M161.173 11.4074C159.588 11.4074 158.342 12.2006 157.641 13.5593V7.33691H155.535V22.6847H157.641V16.5939C157.641 14.6684 158.841 13.4006 160.698 13.4006C162.556 13.4006 163.71 14.6684 163.71 16.5939V22.6847H165.794V16.3674C165.794 13.3098 164.027 11.4074 161.174 11.4074H161.173Z" fill="#6210CC"/>
<path id="Vector_6" d="M177.249 13.8986C176.434 12.3135 174.984 11.4077 173.037 11.4077C170.049 11.4077 167.671 13.9664 167.671 17.1596C167.671 20.3528 170.049 22.9114 173.037 22.9114C174.984 22.9114 176.434 22.0057 177.249 20.4206V22.685H179.333V11.6342H177.249V13.8986ZM173.467 20.9182C171.361 20.9182 169.709 19.2653 169.709 17.1596C169.709 15.0538 171.361 13.4009 173.467 13.4009C175.573 13.4009 177.249 14.986 177.249 17.1596C177.249 19.3331 175.641 20.9182 173.467 20.9182Z" fill="#6210CC"/>
<path id="Vector_7" d="M184.857 8.64551H182.774V11.634H180.622V13.6272H182.774V18.7675C182.774 21.4618 184.315 22.8204 186.647 22.8204C187.032 22.8204 187.508 22.7757 187.847 22.6848V20.7594C187.62 20.8272 187.326 20.8503 187.077 20.8503C185.763 20.8503 184.857 20.2618 184.857 18.7214V13.6258H187.845V11.6326H184.857V8.64551Z" fill="#6210CC"/>
<path id="Vector_8" d="M195.84 11.4074C193.915 11.4074 192.466 12.3132 191.65 13.8535V7.33691H189.544V22.6847H191.65V20.465C192.465 22.0054 193.915 22.9112 195.84 22.9112C198.852 22.9112 201.23 20.3525 201.23 17.1593C201.23 13.9661 198.852 11.4074 195.84 11.4074ZM195.41 20.9179C193.258 20.9179 191.652 19.3328 191.652 17.1593C191.652 14.9857 193.26 13.4006 195.41 13.4006C197.561 13.4006 199.169 15.0535 199.169 17.1593C199.169 19.265 197.516 20.9179 195.41 20.9179Z" fill="#6210CC"/>
<path id="Vector_9" d="M207.909 11.4077C204.693 11.4077 202.202 13.9216 202.202 17.1826C202.202 20.4436 204.693 22.9114 207.909 22.9114C211.125 22.9114 213.615 20.4206 213.615 17.1826C213.615 13.9447 211.101 11.4077 207.909 11.4077ZM207.909 20.9182C205.825 20.9182 204.24 19.2884 204.24 17.1813C204.24 15.0742 205.825 13.3996 207.909 13.3996C209.993 13.3996 211.577 15.0294 211.577 17.1813C211.577 19.3331 209.969 20.9182 207.909 20.9182Z" fill="#6210CC"/>
<path id="Vector_10" d="M221.178 13.6272V11.634H218.19V8.64551H216.107V11.634H213.955V13.6272H216.107V18.7675C216.107 21.4618 217.647 22.8204 219.98 22.8204C220.365 22.8204 220.841 22.7757 221.18 22.6848V20.7594C220.953 20.8272 220.659 20.8503 220.41 20.8503C219.096 20.8503 218.19 20.2618 218.19 18.7214V13.6258H221.178V13.6272Z" fill="#6210CC"/>
</g>
</g>
</svg>
